<mxfile host="65bd71144e">
    <diagram id="moCF3po5PKJXaxFh2DUM" name="Page-1">
        <mxGraphModel dx="1058" dy="679" grid="1" gridSize="10" guides="1" tooltips="1" connect="1" arrows="1" fold="1" page="1" pageScale="1" pageWidth="850" pageHeight="1100" math="0" shadow="0">
            <root>
                <mxCell id="0"/>
                <mxCell id="1" parent="0"/>
                <mxCell id="12" value="Sushi Ecosystem" style="shape=folder;fontStyle=1;tabWidth=110;tabHeight=30;tabPosition=left;html=1;boundedLbl=1;labelInHeader=1;container=1;collapsible=0;recursiveResize=0;" vertex="1" parent="1">
                    <mxGeometry x="20" y="90" width="800" height="520" as="geometry"/>
                </mxCell>
                <mxCell id="6" value="«Isolated Lending &amp;amp; Borrowing»&lt;br&gt;&lt;b&gt;Kashi&lt;/b&gt;" style="html=1;" vertex="1" parent="12">
                    <mxGeometry x="25" y="430" width="230" height="50" as="geometry"/>
                </mxCell>
                <mxCell id="19" style="edgeStyle=none;html=1;entryX=0.5;entryY=0;entryDx=0;entryDy=0;" edge="1" parent="12" source="7" target="6">
                    <mxGeometry relative="1" as="geometry"/>
                </mxCell>
                <mxCell id="20" style="edgeStyle=none;html=1;entryX=0.5;entryY=0;entryDx=0;entryDy=0;" edge="1" parent="12" source="7" target="14">
                    <mxGeometry relative="1" as="geometry"/>
                </mxCell>
                <mxCell id="23" style="edgeStyle=none;html=1;entryX=0.5;entryY=0;entryDx=0;entryDy=0;" edge="1" parent="12" source="7" target="22">
                    <mxGeometry relative="1" as="geometry"/>
                </mxCell>
                <mxCell id="7" value="«Token Vault»&lt;br&gt;&lt;b&gt;BentoBox&lt;/b&gt;" style="html=1;" vertex="1" parent="12">
                    <mxGeometry x="300" y="300" width="180" height="50" as="geometry"/>
                </mxCell>
                <mxCell id="9" value="«MultiChain Launchpad»&lt;br&gt;&lt;b&gt;Miso&lt;/b&gt;" style="html=1;" vertex="1" parent="12">
                    <mxGeometry x="20" y="50" width="180" height="50" as="geometry"/>
                </mxCell>
                <mxCell id="5" value="«Stake Sushi for xSushi»&lt;br&gt;&lt;b&gt;SushiBar&lt;/b&gt;" style="html=1;" vertex="1" parent="12">
                    <mxGeometry x="20" y="130" width="180" height="50" as="geometry"/>
                </mxCell>
                <mxCell id="4" value="«Yield Farm»&lt;br&gt;&lt;b&gt;Onsen&lt;/b&gt;" style="html=1;" vertex="1" parent="12">
                    <mxGeometry x="405" y="130" width="165" height="50" as="geometry"/>
                </mxCell>
                <mxCell id="14" value="«BentoDapp»&lt;br&gt;&lt;b&gt;Meowshi&lt;/b&gt;" style="html=1;" vertex="1" parent="12">
                    <mxGeometry x="295" y="430" width="180" height="50" as="geometry"/>
                </mxCell>
                <mxCell id="15" value="«1-Click-Strategy»&lt;br&gt;&lt;b&gt;Inari&lt;/b&gt;" style="html=1;" vertex="1" parent="12">
                    <mxGeometry x="240" y="130" width="140" height="50" as="geometry"/>
                </mxCell>
                <mxCell id="16" value="« AMM »&lt;br&gt;&lt;b&gt;Liquidity Pool&lt;/b&gt;" style="html=1;" vertex="1" parent="12">
                    <mxGeometry x="420" y="50" width="150" height="50" as="geometry"/>
                </mxCell>
                <mxCell id="17" value="« AMM »&lt;br&gt;&lt;b&gt;Swap&lt;/b&gt;" style="html=1;" vertex="1" parent="12">
                    <mxGeometry x="600" y="130" width="180" height="50" as="geometry"/>
                </mxCell>
                <mxCell id="18" value="«NFT Marketplace »&lt;br&gt;&lt;b&gt;Shoyu&lt;/b&gt;" style="html=1;" vertex="1" parent="12">
                    <mxGeometry x="225" y="50" width="180" height="50" as="geometry"/>
                </mxCell>
                <mxCell id="21" value="«Subgraph»&lt;br&gt;&lt;b&gt;SushiSwap Analytics&lt;/b&gt;" style="html=1;" vertex="1" parent="12">
                    <mxGeometry x="600" y="50" width="180" height="50" as="geometry"/>
                </mxCell>
                <mxCell id="22" value="«AMM Framework»&lt;br&gt;&lt;b&gt;Trident&lt;/b&gt;" style="html=1;" vertex="1" parent="12">
                    <mxGeometry x="520" y="430" width="180" height="50" as="geometry"/>
                </mxCell>
            </root>
        </mxGraphModel>
    </diagram>
</mxfile>